<svg width="1920" height="1080" viewBox="0 0 1920 1080" xmlns="http://www.w3.org/2000/svg">
  <!-- Deep space gradient background -->
  <defs>
    <radialGradient id="spaceGrad" cx="0.5" cy="0.3">
      <stop offset="0%" style="stop-color:#1a1a3e;stop-opacity:1" />
      <stop offset="40%" style="stop-color:#0f1040;stop-opacity:1" />
      <stop offset="70%" style="stop-color:#0a0520;stop-opacity:1" />
      <stop offset="100%" style="stop-color:#050015;stop-opacity:1" />
    </radialGradient>
    
    <!-- Planet gradients -->
    <radialGradient id="orangePlanet" cx="0.3" cy="0.3">
      <stop offset="0%" style="stop-color:#ff7744;stop-opacity:1" />
      <stop offset="50%" style="stop-color:#cc4422;stop-opacity:1" />
      <stop offset="100%" style="stop-color:#883311;stop-opacity:1" />
    </radialGradient>
    
    <radialGradient id="greenPlanet" cx="0.3" cy="0.3">
      <stop offset="0%" style="stop-color:#44ff77;stop-opacity:1" />
      <stop offset="50%" style="stop-color:#22cc44;stop-opacity:1" />
      <stop offset="100%" style="stop-color:#118833;stop-opacity:1" />
    </radialGradient>
    
    <radialGradient id="grayPlanet" cx="0.3" cy="0.3">
      <stop offset="0%" style="stop-color:#999999;stop-opacity:1" />
      <stop offset="50%" style="stop-color:#666666;stop-opacity:1" />
      <stop offset="100%" style="stop-color:#333333;stop-opacity:1" />
    </radialGradient>
    
    <radialGradient id="purplePlanet" cx="0.3" cy="0.3">
      <stop offset="0%" style="stop-color:#8844ff;stop-opacity:1" />
      <stop offset="50%" style="stop-color:#5522cc;stop-opacity:1" />
      <stop offset="100%" style="stop-color:#331188;stop-opacity:1" />
    </radialGradient>
  </defs>
  
  <!-- Space background -->
  <rect width="1920" height="1080" fill="url(#spaceGrad)"/>
  
  <!-- Stars -->
  <circle cx="120" cy="85" r="1.5" fill="#ffffff" opacity="0.9"/>
  <circle cx="340" cy="145" r="1" fill="#ffffff" opacity="0.7"/>
  <circle cx="580" cy="95" r="0.8" fill="#ffffff" opacity="0.6"/>
  <circle cx="750" cy="180" r="1.2" fill="#ffffff" opacity="0.8"/>
  <circle cx="920" cy="120" r="0.9" fill="#ffffff" opacity="0.7"/>
  <circle cx="1150" cy="160" r="1.3" fill="#ffffff" opacity="0.85"/>
  <circle cx="1380" cy="100" r="1.1" fill="#ffffff" opacity="0.75"/>
  <circle cx="1550" cy="200" r="0.7" fill="#ffffff" opacity="0.6"/>
  <circle cx="1720" cy="140" r="1.4" fill="#ffffff" opacity="0.9"/>
  <circle cx="1850" cy="220" r="1" fill="#ffffff" opacity="0.7"/>
  
  <!-- Mid section stars -->
  <circle cx="180" cy="350" r="1.1" fill="#ffffff" opacity="0.8"/>
  <circle cx="420" cy="420" r="0.9" fill="#ffffff" opacity="0.7"/>
  <circle cx="680" cy="380" r="1.3" fill="#ffffff" opacity="0.85"/>
  <circle cx="880" cy="450" r="0.8" fill="#ffffff" opacity="0.65"/>
  <circle cx="1120" cy="400" r="1.2" fill="#ffffff" opacity="0.8"/>
  <circle cx="1340" cy="480" r="1" fill="#ffffff" opacity="0.7"/>
  <circle cx="1580" cy="420" r="0.9" fill="#ffffff" opacity="0.7"/>
  <circle cx="1780" cy="390" r="1.4" fill="#ffffff" opacity="0.9"/>
  
  <!-- Bottom stars -->
  <circle cx="95" cy="650" r="0.8" fill="#ffffff" opacity="0.65"/>
  <circle cx="280" cy="720" r="1.2" fill="#ffffff" opacity="0.8"/>
  <circle cx="520" cy="680" r="1" fill="#ffffff" opacity="0.7"/>
  <circle cx="740" cy="750" r="0.9" fill="#ffffff" opacity="0.7"/>
  <circle cx="980" cy="700" r="1.3" fill="#ffffff" opacity="0.85"/>
  <circle cx="1220" cy="780" r="1.1" fill="#ffffff" opacity="0.75"/>
  <circle cx="1460" cy="720" r="0.7" fill="#ffffff" opacity="0.6"/>
  <circle cx="1680" cy="820" r="1.2" fill="#ffffff" opacity="0.8"/>
  <circle cx="1840" cy="780" r="0.9" fill="#ffffff" opacity="0.7"/>
  
  <!-- Lower bottom stars -->
  <circle cx="160" cy="920" r="1" fill="#ffffff" opacity="0.7"/>
  <circle cx="380" cy="980" r="0.8" fill="#ffffff" opacity="0.65"/>
  <circle cx="620" cy="940" r="1.2" fill="#ffffff" opacity="0.8"/>
  <circle cx="820" cy="1000" r="0.9" fill="#ffffff" opacity="0.7"/>
  <circle cx="1040" cy="960" r="1.1" fill="#ffffff" opacity="0.75"/>
  <circle cx="1280" cy="1020" r="0.7" fill="#ffffff" opacity="0.6"/>
  <circle cx="1500" cy="980" r="1.3" fill="#ffffff" opacity="0.85"/>
  <circle cx="1720" cy="1040" r="1" fill="#ffffff" opacity="0.7"/>
  
  <!-- Bright stars -->
  <g>
    <!-- 4-pointed star -->
    <path d="M 295,85 L 305,95 L 295,105 L 285,95 Z" fill="#ffdd44" opacity="0.9">
      <animateTransform attributeName="transform" type="rotate" 
        values="0 295 95;360 295 95" dur="4s" repeatCount="indefinite"/>
    </path>
    <circle cx="295" cy="95" r="2" fill="#ffffff" opacity="0.9"/>
  </g>
  
  <g>
    <!-- Another 4-pointed star -->
    <path d="M 825,280 L 835,290 L 825,300 L 815,290 Z" fill="#ffdd44" opacity="0.85">
      <animateTransform attributeName="transform" type="rotate" 
        values="0 825 290;360 825 290" dur="5s" repeatCount="indefinite"/>
    </path>
    <circle cx="825" cy="290" r="2" fill="#ffffff" opacity="0.85"/>
  </g>
  
  <g>
    <!-- Third 4-pointed star -->
    <path d="M 1295,320 L 1305,330 L 1295,340 L 1285,330 Z" fill="#ffdd44" opacity="0.9">
      <animateTransform attributeName="transform" type="rotate" 
        values="0 1295 330;360 1295 330" dur="3.5s" repeatCount="indefinite"/>
    </path>
    <circle cx="1295" cy="330" r="2" fill="#ffffff" opacity="0.9"/>
  </g>
  
  <!-- Orange planet (top left) -->
  <circle cx="150" cy="160" r="60" fill="url(#orangePlanet)"/>
  <!-- Orange planet craters -->
  <circle cx="135" cy="145" r="8" fill="#cc3311" opacity="0.6"/>
  <circle cx="155" cy="170" r="12" fill="#aa2200" opacity="0.5"/>
  <circle cx="170" cy="140" r="6" fill="#cc3311" opacity="0.7"/>
  
  <!-- Green planet (top right) -->
  <circle cx="1550" cy="180" r="65" fill="url(#greenPlanet)"/>
  <!-- Green planet markings -->
  <ellipse cx="1540" cy="165" rx="15" ry="8" fill="#11aa33" opacity="0.6"/>
  <ellipse cx="1560" cy="190" rx="20" ry="6" fill="#11aa33" opacity="0.5"/>
  <circle cx="1570" cy="160" r="5" fill="#118833" opacity="0.7"/>
  
  <!-- Gray moon (center) -->
  <circle cx="960" cy="400" r="80" fill="url(#grayPlanet)"/>
  <!-- Moon craters -->
  <circle cx="940" cy="380" r="15" fill="#555555" opacity="0.8"/>
  <circle cx="970" cy="410" r="20" fill="#444444" opacity="0.7"/>
  <circle cx="985" cy="375" r="8" fill="#555555" opacity="0.8"/>
  <circle cx="930" cy="420" r="12" fill="#444444" opacity="0.6"/>
  <circle cx="995" cy="395" r="6" fill="#555555" opacity="0.7"/>
  
  <!-- Purple planet (bottom right) -->
  <circle cx="1400" cy="820" r="55" fill="url(#purplePlanet)"/>
  <!-- Purple planet spots -->
  <circle cx="1385" cy="805" r="7" fill="#5522cc" opacity="0.7"/>
  <circle cx="1410" cy="835" r="9" fill="#4411aa" opacity="0.6"/>
  <circle cx="1420" cy="800" r="5" fill="#5522cc" opacity="0.8"/>
</svg>